<svg xmlns="http://www.w3.org/2000/svg" width="400" height="400" viewBox="0 0 400 400" version="1.1">
	<path d="M 191 11.369 C 188.525 11.897, 184.025 12.233, 181 12.115 C 172.637 11.789, 169.056 12.723, 167.998 15.505 C 167.417 17.035, 165.116 18.803, 161.637 20.394 C 153.969 23.902, 151.088 28.033, 150.143 36.878 C 149.535 42.573, 148.805 44.661, 146.358 47.716 C 142.327 52.746, 138.685 58.707, 137.019 63 C 136.272 64.925, 133.929 70.402, 131.813 75.171 L 127.965 83.842 128.823 96.171 C 129.294 102.952, 129.480 113.758, 129.234 120.185 L 128.788 131.870 132.644 132.566 C 138.572 133.638, 140.290 134.823, 139.558 137.336 C 139.211 138.526, 138.794 141.750, 138.631 144.500 C 138.468 147.250, 136.347 155.236, 133.917 162.247 C 130.049 173.410, 129.225 174.995, 127.284 174.997 C 126.065 174.999, 123.590 175.638, 121.784 176.417 C 119.978 177.197, 116.957 178.410, 115.070 179.113 C 108.005 181.747, 91 201.913, 91 207.657 C 91 208.374, 90.307 210.692, 89.459 212.810 C 88.120 216.157, 87.237 216.873, 82.709 218.283 C 79.844 219.176, 73.900 220.188, 69.500 220.531 C 56.411 221.554, 53.283 223.780, 56.418 229.842 C 58.027 232.954, 62.297 235, 67.181 235 C 70.088 235, 70.360 235.331, 71.415 240.167 C 71.764 241.769, 73.409 243.708, 75.533 245.020 C 78.376 246.777, 78.938 247.627, 78.397 249.353 C 77.068 253.602, 67.060 273.612, 63.657 278.826 C 56.689 289.501, 55.188 303.569, 60.009 313.018 C 61.236 315.423, 65.523 320.738, 69.537 324.830 L 76.833 332.270 81.816 331.792 C 85.563 331.432, 88.522 330.178, 93.740 326.740 C 103.461 320.336, 106 317.071, 106 310.972 C 106 308.291, 106.631 303.713, 107.402 300.799 C 109.363 293.384, 117.163 278.545, 118.296 280.073 C 119.437 281.613, 127 299.100, 127 300.199 C 127 300.945, 127.617 302.443, 128.371 303.527 C 130.050 305.943, 132 314.747, 132 319.909 C 132 322.227, 130.761 326.121, 128.837 329.851 C 125.782 335.775, 125.736 336.050, 127.463 337.959 C 128.453 339.053, 129.005 340.730, 128.701 341.717 C 128.016 343.938, 122.876 356.372, 122.443 356.854 C 122.268 357.049, 120.677 356.487, 118.909 355.604 C 117.140 354.722, 114.964 354, 114.074 354 C 111.316 354, 105.572 359.535, 102.507 365.144 C 99.817 370.066, 99.590 371.269, 99.698 380 C 99.762 385.225, 99.835 391.863, 99.861 394.750 L 99.906 400 186.060 400 C 267.714 400, 272.177 399.909, 271.508 398.250 C 268.562 390.951, 263.648 376.603, 261.903 370.208 C 258.441 357.512, 258.127 355.201, 259.604 353.256 C 262.174 349.869, 260.289 339.187, 256.353 334.837 C 255.441 333.830, 254.641 330.893, 254.483 327.976 C 254.277 324.160, 253.284 321.379, 250.534 316.925 L 246.861 310.973 247.475 298.737 C 247.980 288.667, 248.419 286.167, 249.955 284.617 C 251.779 282.777, 251.891 282.953, 254.911 292.379 C 256.610 297.684, 258 302.892, 258 303.953 C 258 305.014, 258.450 306.160, 259 306.500 C 259.550 306.840, 260 307.976, 260 309.024 C 260 312.173, 265.197 318.760, 270.155 321.893 C 273.635 324.093, 275.762 326.560, 278.580 331.668 C 284.110 341.690, 295.171 355.259, 299.685 357.558 C 301.783 358.626, 303.664 359.589, 303.865 359.699 C 304.066 359.808, 302.988 360.967, 301.469 362.273 L 298.706 364.649 299.991 372.075 C 302.175 384.691, 302.377 392.624, 300.581 395.188 C 297.444 399.666, 298.167 400, 311 400 L 323 400 322.976 392.750 C 322.963 388.762, 322.556 383.792, 322.071 381.704 C 321.342 378.563, 321.641 376.860, 323.806 371.844 C 326.245 366.191, 326.306 365.697, 324.708 364.529 C 321.887 362.466, 323.620 357.802, 329.498 351.636 C 333.396 347.546, 334.926 345.098, 335.335 342.297 C 335.639 340.209, 336.384 335.448, 336.990 331.719 C 337.977 325.645, 337.897 324.654, 336.229 322.219 C 335.204 320.723, 334.308 318.437, 334.237 317.138 C 334.060 313.908, 331.375 311.193, 327.087 309.908 C 323.519 308.839, 323.500 308.803, 323.500 303.167 C 323.500 299.305, 322.789 296.077, 321.269 293.035 L 319.038 288.570 321.533 285.966 C 324.500 282.869, 328.062 270.911, 328.373 263 C 328.495 259.923, 329.314 256.399, 330.233 255 C 334.288 248.830, 337.910 228.157, 335.906 222.618 C 334.899 219.833, 334.945 218.091, 336.156 213.137 C 337.353 208.234, 337.395 206.820, 336.370 205.783 C 335.673 205.078, 335 202.446, 334.874 199.935 C 334.676 195.972, 335.790 193.075, 343.342 177.935 L 352.039 160.500 352.585 147.500 C 352.885 140.350, 353.664 133.388, 354.315 132.030 C 355.012 130.578, 358.002 128.311, 361.573 126.530 C 367.857 123.394, 376.050 115.453, 375.274 113.250 C 374.484 111.008, 371.544 111.938, 369.500 115.076 C 367.151 118.683, 361.889 121.657, 356.986 122.150 L 353.500 122.500 353 117 C 352.507 111.578, 352.457 111.505, 349.507 111.826 C 347.862 112.005, 346.287 112.381, 346.007 112.662 C 345.728 112.942, 345.472 118.196, 345.439 124.336 C 345.389 133.435, 344.999 136.294, 343.331 139.791 C 341.775 143.053, 341.455 145.022, 342 148.001 C 342.513 150.807, 342.095 154.076, 340.528 159.509 C 338.243 167.430, 332.156 179.187, 330.598 178.687 C 329.017 178.181, 327.090 168.748, 327.044 161.297 C 327.002 154.372, 325.602 149, 323.839 149 C 323.378 149, 323 148.204, 323 147.232 C 323 146.260, 321.762 143.672, 320.250 141.482 C 317.790 137.919, 317.502 136.631, 317.515 129.250 C 317.523 124.713, 317.221 121, 316.842 121 C 313.649 121, 313.097 97.109, 315.966 83.139 C 317.024 77.990, 318.027 73.656, 318.195 73.509 C 318.363 73.361, 320.863 72.054, 323.750 70.603 C 331.412 66.755, 330.550 63.200, 322.750 66.478 C 319.691 67.764, 320.756 64.624, 324.626 60.946 C 326.621 59.051, 330.657 54.617, 333.596 51.093 C 337.547 46.354, 340.574 43.880, 345.219 41.593 C 348.761 39.849, 351.500 37.846, 351.500 37 C 351.500 36.156, 350.844 35.675, 350 35.899 C 345.556 37.082, 343 37.135, 343 36.044 C 343 33.283, 338.714 35.921, 334.277 41.412 C 329.030 47.905, 322.379 53.712, 321.358 52.691 C 321 52.333, 322.793 48.931, 325.342 45.132 C 331.376 36.138, 331.618 35.401, 328.992 33.996 C 326.561 32.695, 326.734 32.608, 324.972 36 C 324.257 37.375, 321.310 41.465, 318.422 45.089 C 313.652 51.076, 312.889 51.637, 310.086 51.226 C 306.438 50.690, 306.323 51.303, 308.500 59.661 C 311.086 69.590, 309.813 78.600, 305.741 79.184 C 303.072 79.567, 302.362 81.719, 301.186 93 L 300.299 101.500 300.150 93.184 C 299.998 84.742, 300.690 82.214, 304.219 78.335 C 305.528 76.897, 305.967 75.470, 305.527 74.085 C 304.623 71.237, 302.781 71.468, 299.119 74.888 L 296.027 77.777 292.491 72.855 C 288.790 67.704, 285.352 65.701, 281.067 66.202 C 277.693 66.596, 277.135 69.643, 280.179 71.054 C 281.455 71.646, 284.863 75.134, 287.750 78.805 L 293 85.479 293 100.845 C 293 115.610, 293.094 116.323, 295.402 119.066 C 297.840 121.963, 299.178 125.204, 302.869 137.155 C 303.999 140.816, 306.226 145.863, 307.816 148.371 C 310.530 152.650, 310.652 153.286, 309.805 158.691 C 309.308 161.859, 308.195 165.232, 307.332 166.185 C 305.512 168.197, 306.132 171.959, 308.940 175.939 C 309.934 177.348, 312.266 181.425, 314.123 185 C 317.714 191.911, 317.943 193.659, 318.132 215.500 C 318.192 222.406, 317.701 225.896, 316.023 230.500 C 312.239 240.877, 311.916 242.638, 312.774 248.173 C 313.879 255.298, 312.853 259.524, 309.072 263.426 C 307.068 265.493, 305.717 268.090, 305.347 270.585 C 305.027 272.738, 303.621 276.819, 302.222 279.654 L 299.679 284.809 302.224 290.154 C 303.624 293.094, 304.605 295.679, 304.403 295.899 C 303.568 296.806, 295.710 287.126, 293.434 282.386 C 290.331 275.924, 286.008 254.061, 285.974 244.656 C 285.960 240.720, 285.512 233.010, 284.978 227.522 C 284.081 218.290, 283.684 217.017, 279.675 210.522 C 277.292 206.660, 275.044 202.312, 274.680 200.860 C 274.315 199.408, 273.328 197.956, 272.485 197.633 C 271.259 197.162, 271.152 197.416, 271.949 198.904 C 272.499 199.933, 272.845 206.593, 272.722 213.804 C 272.600 220.977, 272.170 225.960, 271.766 224.879 C 271.363 223.798, 271.096 218.096, 271.174 212.207 C 271.344 199.359, 269.826 194.786, 263.549 189.234 C 261.228 187.180, 257.637 183.137, 255.570 180.250 C 253.503 177.363, 251.507 175, 251.133 175 C 250.760 175, 250.697 177.886, 250.993 181.414 C 251.289 184.942, 251.187 187.615, 250.766 187.355 C 250.344 187.095, 249.993 185.896, 249.985 184.691 C 249.976 183.486, 249.489 181.825, 248.902 181 C 246.957 178.266, 248.752 187.952, 252.052 198 C 257.463 214.475, 259.272 226.882, 257.081 232.493 C 256.552 233.849, 256.140 232.203, 255.792 227.341 C 255.426 222.229, 254.570 218.961, 252.778 215.849 C 246.395 204.757, 243.447 200.072, 242.830 200.037 C 242.129 199.998, 245.004 208.133, 245.998 209 C 246.313 209.275, 247.036 211.846, 247.605 214.712 C 248.454 218.995, 248.383 220.023, 247.208 220.474 C 246.309 220.818, 245.964 220.536, 246.279 219.715 C 246.555 218.996, 244.539 213.479, 241.799 207.454 C 239.059 201.429, 236.199 194.700, 235.443 192.500 C 234.688 190.300, 232.900 185.125, 231.471 181 C 230.042 176.875, 228.235 169.450, 227.454 164.500 C 225.813 154.087, 225.491 126.433, 227 125.500 C 227.550 125.160, 228 125.611, 228 126.503 C 228 129.104, 232.912 138.752, 234.558 139.384 C 235.852 139.880, 236.062 138.043, 236.058 126.231 C 236.055 118.679, 236.196 111.150, 236.370 109.500 C 236.545 107.850, 236.758 104.786, 236.844 102.691 C 237.007 98.703, 238.988 98.354, 239.015 102.309 C 239.040 105.831, 242.784 119.986, 245.413 126.500 C 252.077 143.010, 254.221 150.130, 256.385 162.931 C 258.024 172.629, 259.443 177.995, 261.074 180.668 C 262.990 183.807, 263.075 184.229, 261.548 183 C 258.880 180.854, 254.002 170.073, 254.001 166.321 C 254 164.573, 253.408 162.548, 252.685 161.821 C 251.962 161.095, 250.851 159.600, 250.216 158.500 C 249.329 156.964, 249.054 156.867, 249.030 158.083 C 249.014 158.954, 249.325 159.992, 249.723 160.390 C 250.121 160.787, 250.542 162.608, 250.658 164.436 C 250.955 169.076, 256.124 180.053, 259.666 183.566 C 261.294 185.180, 265.698 189.173, 269.455 192.440 C 274.584 196.901, 276.882 199.766, 278.683 203.940 C 283.324 214.700, 285.360 218.120, 288.415 220.287 L 291.500 222.475 287.870 217.988 C 285.874 215.519, 283.211 210.575, 281.952 207 C 280.112 201.773, 278.255 199.031, 272.473 193 C 262.228 182.314, 259.728 176.517, 257.034 157.200 C 256.349 152.294, 254.305 144.932, 252.034 139.200 C 246.828 126.054, 242.118 111.343, 241.038 104.856 C 240.547 101.910, 239.466 98.150, 238.636 96.500 C 237.806 94.850, 236.812 89.450, 236.429 84.500 C 236.029 79.332, 234.760 72.791, 233.450 69.139 C 231.323 63.211, 231.267 62.495, 232.635 58.639 C 233.854 55.202, 233.899 53.469, 232.902 48.418 C 231.739 42.536, 231.787 42.207, 234.350 38.436 C 237.775 33.395, 237.690 31.740, 233.750 26.843 C 231.963 24.621, 229.600 20.957, 228.500 18.701 C 226.655 14.916, 226.035 14.492, 220.500 13.223 C 216.892 12.397, 212.149 12.078, 208.603 12.424 C 205.359 12.741, 202.209 12.611, 201.603 12.134 C 199.723 10.658, 195.694 10.368, 191 11.369 M 92.241 12.995 C 90.448 14.088, 88.117 16.404, 87.060 18.142 C 85.267 21.090, 85.242 21.564, 86.683 25.165 C 88.154 28.841, 88.116 30.388, 86.423 35.906 C 85.908 37.587, 86.026 38.102, 86.815 37.614 C 87.437 37.230, 88.438 35.087, 89.040 32.852 C 89.642 30.617, 91.170 27.824, 92.437 26.644 C 94.332 24.880, 97.106 16.419, 97.143 12.290 C 97.157 10.804, 95.426 11.053, 92.241 12.995 M 90.923 16.923 C 89.315 18.531, 88.036 20.668, 88.079 21.673 C 88.139 23.069, 88.286 23.146, 88.702 22 C 89.001 21.175, 90.629 19.038, 92.319 17.250 C 96.141 13.209, 94.923 12.923, 90.923 16.923 M 202.362 40.500 C 201.146 43.669, 204.746 46.839, 206.442 44.093 C 206.751 43.595, 206.036 43.439, 204.855 43.748 C 202.979 44.239, 202.772 43.975, 203.215 41.655 C 203.768 38.763, 203.281 38.104, 202.362 40.500 M 200.195 42.500 C 200.215 44.150, 200.439 44.704, 200.693 43.731 C 200.947 42.758, 200.930 41.408, 200.656 40.731 C 200.382 40.054, 200.175 40.850, 200.195 42.500 M 195.015 43.344 C 195.024 44.597, 195.338 45.039, 195.765 44.400 C 196.169 43.795, 197.163 43.086, 197.974 42.825 C 199.012 42.491, 198.790 42.178, 197.224 41.769 C 195.431 41.300, 195.003 41.605, 195.015 43.344 M 102 44.491 C 102 47.803, 104.437 52.570, 106.545 53.379 C 109.194 54.395, 114.514 54.086, 115.758 52.842 C 117.126 51.474, 120 53.357, 120 55.622 C 120 56.380, 120.450 57, 121 57 C 122.589 57, 122.164 54.480, 120.138 51.885 C 119.113 50.573, 117.958 48.487, 117.570 47.250 C 117.182 46.013, 116.221 44.944, 115.433 44.875 C 114.645 44.806, 112.763 44.655, 111.250 44.539 C 109.737 44.422, 107.661 43.961, 106.635 43.512 C 105.015 42.805, 104.869 43.014, 105.528 45.099 C 105.945 46.419, 107.122 48.088, 108.143 48.807 C 110.358 50.365, 110.569 52, 108.557 52 C 106.649 52, 104 48.126, 104 45.337 C 104 44.116, 103.550 42.840, 103 42.500 C 102.431 42.148, 102 43.006, 102 44.491 M 152.872 43.750 C 151.629 45.336, 151.664 45.371, 153.250 44.128 C 154.916 42.821, 155.445 42, 154.622 42 C 154.415 42, 153.627 42.788, 152.872 43.750 M 156.887 50.750 C 152.695 55.385, 151.398 57.712, 155.075 54 C 156.982 52.075, 159.433 49.964, 160.521 49.309 C 162.049 48.389, 162.144 48.104, 160.937 48.059 C 160.077 48.026, 158.255 49.237, 156.887 50.750 M 198.495 49.244 C 198.108 50.204, 197.419 50.759, 196.964 50.478 C 196.510 50.197, 195.868 50.405, 195.537 50.940 C 195.206 51.475, 194.270 51.657, 193.455 51.344 C 192.641 51.032, 191.404 51.250, 190.707 51.828 C 190.010 52.406, 187.091 52.772, 184.220 52.640 C 181.277 52.505, 179 52.832, 179 53.391 C 179 53.936, 178.297 53.509, 177.437 52.441 C 176.449 51.214, 176.017 51.044, 176.263 51.979 C 176.477 52.792, 178.643 54.674, 181.076 56.160 C 199.769 67.582, 202.224 69.110, 205.144 71.133 C 207.659 72.876, 219.420 74.488, 218.475 72.960 C 218.170 72.466, 215.251 71.511, 211.988 70.837 C 208.701 70.158, 204.859 68.583, 203.372 67.306 C 201.896 66.038, 201.197 65, 201.819 65 C 203.190 65, 205.956 59.904, 205.664 57.915 C 205.548 57.129, 204.647 55.364, 203.661 53.993 L 201.869 51.500 202.184 55 C 202.473 58.199, 202.254 58.528, 199.629 58.828 C 196.161 59.224, 192 58.285, 192 57.106 C 192 56.635, 193.376 55.975, 195.058 55.638 C 199.414 54.767, 201.204 52.702, 200.096 49.826 C 199.309 47.781, 199.115 47.711, 198.495 49.244 M 168.079 52.583 C 168.127 53.748, 168.364 53.985, 168.683 53.188 C 168.972 52.466, 168.936 51.603, 168.604 51.271 C 168.272 50.939, 168.036 51.529, 168.079 52.583 M 210.954 53.086 C 210.340 54.233, 210.099 55.433, 210.419 55.752 C 210.739 56.072, 211.032 55.696, 211.070 54.917 C 211.112 54.080, 211.492 54.319, 212 55.500 C 212.720 57.176, 212.871 56.974, 212.930 54.250 C 213.011 50.475, 212.510 50.179, 210.954 53.086 M 166 53 C 166 53.550, 165.325 54, 164.500 54 C 163.675 54, 163.036 54.788, 163.079 55.750 C 163.126 56.795, 163.361 56.997, 163.662 56.250 C 163.940 55.563, 164.804 55, 165.583 55 C 166.363 55, 167 54.325, 167 53.500 C 167 52.675, 166.775 52, 166.500 52 C 166.225 52, 166 52.450, 166 53 M 214.195 54.500 C 214.215 56.150, 214.439 56.704, 214.693 55.731 C 214.947 54.758, 214.930 53.408, 214.656 52.731 C 214.382 52.054, 214.175 52.850, 214.195 54.500 M 188 54.776 C 188 55.386, 187.060 55.704, 185.911 55.483 C 184.147 55.143, 184.017 55.315, 185.075 56.590 C 186.192 57.936, 186.494 57.935, 187.855 56.574 C 188.694 55.734, 189.070 54.737, 188.690 54.357 C 188.311 53.977, 188 54.166, 188 54.776 M 158.427 58.479 C 156.735 59.759, 156.706 59.940, 158.191 59.968 C 159.121 59.986, 160.179 59.520, 160.541 58.933 C 161.630 57.171, 160.482 56.924, 158.427 58.479 M 171.516 62.069 C 164.819 66.618, 163.690 67.609, 166.250 66.691 C 168.784 65.782, 168.407 66.981, 165.070 70.452 C 162.151 73.489, 156.968 84.756, 159.095 83.441 C 159.880 82.956, 160.019 83.757, 159.560 86.125 C 158.930 89.375, 158.967 89.426, 160.560 87.500 C 161.469 86.400, 162.867 83.989, 163.665 82.142 C 164.464 80.295, 165.381 79.047, 165.703 79.370 C 166.270 79.936, 164.213 86.335, 161.483 92.500 C 160.752 94.150, 159.864 96.850, 159.509 98.500 C 158.896 101.352, 158.941 101.404, 160.432 99.559 C 161.294 98.491, 162 97.124, 162 96.520 C 162 93.431, 174.613 75.279, 175.879 76.546 C 176.122 76.789, 175.658 77.778, 174.848 78.744 C 174.038 79.710, 172.537 81.850, 171.513 83.500 C 169.681 86.452, 169.682 86.476, 171.575 85 C 176.343 81.284, 183.333 70.589, 183.164 67.270 C 182.913 62.332, 182.375 60.748, 180.480 59.362 C 177.995 57.545, 178.323 57.446, 171.516 62.069 M 153.390 65.750 C 145.002 74.455, 142.616 81.927, 142.836 98.789 C 142.974 109.348, 143.910 111.340, 146.814 107.262 C 149.389 103.644, 151.300 95.900, 149.950 94.550 C 149.350 93.950, 149 94.573, 149 96.241 C 149 97.694, 148.613 99.121, 148.139 99.414 C 147.661 99.709, 147.642 98.068, 148.096 95.723 C 148.545 93.400, 148.964 91.050, 149.027 90.500 C 149.089 89.950, 149.550 90.400, 150.051 91.500 C 150.767 93.070, 150.917 92.684, 150.752 89.701 C 150.636 87.611, 150.982 85.586, 151.521 85.201 C 152.059 84.815, 153.522 82.250, 154.771 79.500 L 157.042 74.500 154.580 77.442 C 153.227 79.060, 152.325 80.716, 152.576 81.123 C 153.110 81.987, 151.101 83.434, 150.375 82.708 C 150.104 82.438, 150.631 80.480, 151.546 78.358 C 152.461 76.236, 153.284 72.925, 153.373 71 C 153.480 68.706, 153.987 67.595, 154.843 67.775 C 155.561 67.926, 155.896 67.641, 155.588 67.142 C 155.280 66.643, 155.954 65.057, 157.086 63.618 C 160.385 59.423, 158.359 60.592, 153.390 65.750 M 185.165 69.063 C 181.500 77.053, 177.383 82.533, 170.428 88.676 L 163.992 94.362 165.996 96.496 C 168.648 99.319, 168.528 99.785, 165.250 99.397 C 163.738 99.218, 163.287 99.314, 164.250 99.609 C 165.213 99.905, 166 100.594, 166 101.141 C 166 101.687, 165.138 101.861, 164.084 101.527 C 160.870 100.507, 160.791 102.732, 164.001 103.851 C 167.629 105.115, 168.132 107.501, 164.583 106.610 C 163.156 106.252, 162.010 106.471, 161.785 107.145 C 161.502 107.993, 160.833 107.981, 159.186 107.100 C 157.140 106.004, 156.916 106.168, 156.303 109.206 L 155.639 112.500 154.755 109.114 C 153.127 102.870, 151.502 107.179, 151.480 117.800 C 151.464 125.417, 151.894 128.466, 153.482 132 C 157.110 140.072, 160.807 145.593, 166.756 151.826 L 172.604 157.953 178.052 157.377 C 184.681 156.678, 186.975 155.151, 193.794 146.903 C 200.112 139.262, 199.773 139.751, 203.364 133.102 C 205.571 129.016, 206.097 126.985, 205.655 124.258 C 205.339 122.312, 205.514 119.908, 206.045 118.917 C 206.688 117.715, 206.624 116.269, 205.854 114.579 C 205.021 112.750, 204.991 111.130, 205.747 108.771 L 206.796 105.500 206.913 109 C 207.060 113.378, 208.331 115.471, 210.369 114.689 C 212.503 113.870, 213.498 109.364, 212.137 106.686 C 211.089 104.624, 211.031 104.670, 211.119 107.500 C 211.170 109.150, 211.151 111.400, 211.076 112.500 C 210.865 115.592, 209.376 112.424, 208.491 107 C 208.087 104.525, 206.911 101.306, 205.878 99.846 C 203.750 96.838, 203.433 92.967, 205.171 91.229 C 206.066 90.334, 205.654 89.521, 203.421 87.781 C 196.986 82.767, 195.520 80.365, 195.741 75.194 C 195.771 74.475, 194.717 72.808, 193.398 71.489 L 191 69.091 190.961 71.295 C 190.900 74.814, 187.194 91.766, 187.091 89 C 187.039 87.625, 187.495 82.900, 188.104 78.500 C 188.768 73.702, 188.868 69.195, 188.354 67.240 L 187.497 63.980 185.165 69.063 M 145.564 66.293 C 145.940 67.279, 146.499 67.834, 146.807 67.526 C 147.115 67.219, 146.808 66.412, 146.124 65.733 C 145.136 64.753, 145.022 64.868, 145.564 66.293 M 193.927 68.380 C 194.712 69.343, 196.737 70.847, 198.427 71.720 C 202.604 73.880, 200.434 71.245, 195.827 68.564 C 192.898 66.859, 192.671 66.837, 193.927 68.380 M 197.636 76.494 C 197.952 77.316, 198.580 77.759, 199.033 77.479 C 199.486 77.199, 200.053 77.990, 200.292 79.235 C 200.611 80.891, 200.764 80.626, 200.864 78.250 C 200.973 75.638, 200.614 75, 199.031 75 C 197.696 75, 197.247 75.480, 197.636 76.494 M 223.505 83.708 C 218.353 89.371, 215.018 93.914, 215.007 95.283 C 214.992 97.003, 227.966 83.538, 228.897 80.866 C 230.298 76.846, 229.237 77.405, 223.505 83.708 M 101.524 79.962 C 101.161 80.548, 99.076 81.941, 96.891 83.056 C 90.421 86.356, 89 88.336, 89 94.048 C 89 98.787, 88.801 99.183, 85.750 100.509 C 83.216 101.611, 82.966 101.930, 84.615 101.961 C 85.778 101.982, 87.904 101.077, 89.338 99.948 C 90.773 98.820, 93.996 97.198, 96.501 96.345 C 101.848 94.523, 103.885 91.384, 104.253 84.402 C 104.490 79.900, 103.030 77.525, 101.524 79.962 M 141.384 80.442 C 141.080 81.234, 141.007 82.697, 141.223 83.692 C 141.467 84.821, 141.809 84.279, 142.134 82.250 C 142.678 78.844, 142.325 77.991, 141.384 80.442 M 102 83.939 C 102 84.456, 100.178 86.984, 97.951 89.557 C 95.724 92.130, 94.107 94.440, 94.358 94.691 C 94.919 95.253, 100.665 92.352, 101.423 91.124 C 102.255 89.779, 103.205 83, 102.562 83 C 102.253 83, 102 83.423, 102 83.939 M 210.086 86.937 L 210 90.374 206.786 87.437 C 203.911 84.809, 203.964 84.948, 207.286 88.753 C 209.799 91.631, 211 93.975, 211 96.003 C 211 97.651, 211.423 99, 211.941 99 C 213.857 99, 214.124 96.838, 212.510 94.375 C 211.596 92.980, 211.078 91.238, 211.360 90.504 C 211.642 89.770, 211.490 87.894, 211.022 86.335 L 210.172 83.500 210.086 86.937 M 66.750 95.264 C 63.334 103.574, 65.032 111, 70.349 111 C 71.562 111, 73.584 111.721, 74.842 112.602 C 77.408 114.399, 79.399 113.496, 76.900 111.668 C 75.926 110.956, 75.101 108.408, 74.788 105.143 C 74.505 102.197, 73.827 99.497, 73.281 99.143 C 72.736 98.790, 71.740 96.813, 71.067 94.750 C 70.395 92.688, 69.542 91.002, 69.172 91.004 C 68.803 91.006, 67.713 92.923, 66.750 95.264 M 91.667 92.667 C 91.300 93.033, 91 93.798, 91 94.367 C 91 94.993, 91.466 94.934, 92.183 94.217 C 92.834 93.566, 93.134 92.801, 92.850 92.517 C 92.566 92.233, 92.033 92.300, 91.667 92.667 M 194.479 93.964 C 188.756 94.619, 183 97.203, 183 99.115 C 183 100.312, 183.080 100.295, 188.486 97.903 C 191.411 96.609, 194.428 95.989, 196.363 96.283 C 199.647 96.783, 203 95.612, 203 93.965 C 203 93.434, 202.438 93.062, 201.750 93.137 C 201.063 93.212, 197.791 93.584, 194.479 93.964 M 206.015 94.750 C 206.024 95.713, 206.467 97.175, 207 98 C 207.736 99.138, 207.973 98.716, 207.985 96.250 C 207.993 94.463, 207.550 93, 207 93 C 206.450 93, 206.007 93.787, 206.015 94.750 M 219.872 94.750 C 218.629 96.336, 218.664 96.371, 220.250 95.128 C 221.213 94.373, 222 93.585, 222 93.378 C 222 92.555, 221.179 93.084, 219.872 94.750 M 68.649 97.233 C 68.328 98.461, 68.501 99.901, 69.033 100.433 C 69.656 101.056, 70 100.261, 70 98.200 C 70 94.460, 69.473 94.083, 68.649 97.233 M 107.500 97.106 C 105.850 97.615, 103.284 99.037, 101.797 100.266 L 99.094 102.500 103.843 102.788 C 107.466 103.008, 109.391 102.534, 111.969 100.788 C 116.447 97.754, 116.964 95.975, 113.333 96.090 C 111.775 96.140, 109.150 96.597, 107.500 97.106 M 222.480 99.750 C 222.143 101.813, 221.478 104.400, 221.002 105.500 C 220.205 107.340, 220.128 107.300, 220.037 105 C 219.943 102.600, 219.890 102.580, 218.720 104.500 C 217.357 106.735, 216.907 116.175, 218.202 115.375 C 220.073 114.219, 222.761 107.131, 223.368 101.750 C 224.090 95.356, 223.436 93.883, 222.480 99.750 M 122.006 102.483 C 121.373 104.399, 119.538 106.905, 117.928 108.051 C 115.967 109.448, 115 111.001, 115 112.755 L 115 115.374 112.195 112.687 C 110.437 111.003, 108.281 110, 106.418 110 C 104.783 110, 102.445 109.299, 101.223 108.443 C 100 107.587, 99 107.346, 99 107.908 C 99 108.470, 99.901 109.412, 101.002 110.001 C 102.103 110.590, 103.636 112.588, 104.410 114.440 C 106.151 118.607, 109.391 119.861, 112.095 117.414 C 114.868 114.904, 116.830 116.884, 115.173 120.520 C 114.528 121.936, 114.025 124.085, 114.056 125.297 C 114.098 126.911, 114.432 126.564, 115.306 124 C 116.353 120.932, 116.964 120.462, 120.261 120.189 C 123.497 119.921, 124.299 119.334, 126.011 115.979 C 128.387 111.320, 128.563 105.990, 126.474 101.950 C 124.483 98.099, 123.410 98.227, 122.006 102.483 M 215.638 100.500 C 215.322 101.325, 215.499 102, 216.031 102 C 216.564 102, 217 101.325, 217 100.500 C 217 99.675, 216.823 99, 216.607 99 C 216.391 99, 215.955 99.675, 215.638 100.500 M 183.990 101.807 C 181.893 103.505, 181.860 103.717, 183.450 105.307 C 185.378 107.235, 186.607 107.445, 187.500 106 C 188.434 104.489, 190 104.802, 190 106.500 C 190 108.606, 192.089 108.376, 192.656 106.208 C 193.020 104.816, 193.891 104.506, 196.562 104.817 C 201.850 105.435, 200.688 103.226, 195.300 102.418 C 192.498 101.998, 189.367 102.162, 187.550 102.825 L 184.500 103.937 186.861 101.968 C 188.500 100.601, 188.763 100, 187.722 100 C 186.897 100, 185.217 100.813, 183.990 101.807 M 68.750 102.647 C 69.438 102.933, 70 103.749, 70 104.461 C 70 105.872, 72.775 108.559, 73.491 107.842 C 73.735 107.599, 73.611 106.297, 73.217 104.950 C 72.728 103.279, 71.705 102.441, 70 102.313 C 68.625 102.211, 68.063 102.361, 68.750 102.647 M 147.079 102.809 C 147.036 103.529, 146.597 103.869, 146.105 103.565 C 145.612 103.260, 144.957 103.669, 144.648 104.474 C 144.340 105.278, 144.467 106.170, 144.930 106.457 C 146.134 107.201, 148.289 104.315, 147.673 102.784 C 147.261 101.756, 147.142 101.761, 147.079 102.809 M 121.371 106.508 C 118.767 110.503, 119.584 112.565, 122.753 109.999 C 124.923 108.242, 125.790 104.580, 124.250 103.680 C 123.838 103.439, 122.542 104.711, 121.371 106.508 M 140 110 C 140 111.100, 140.408 112, 140.906 112 C 141.405 112, 141.577 111.100, 141.290 110 C 141.002 108.900, 140.594 108, 140.383 108 C 140.173 108, 140 108.900, 140 110 M 146.222 112.250 C 144.778 114.015, 144.343 124.135, 145.617 126.339 C 146.431 127.749, 146.574 126.911, 146.229 122.753 C 145.914 118.952, 146.269 116.380, 147.415 114.164 C 149.022 111.058, 148.233 109.792, 146.222 112.250 M 213.902 118.352 C 213.681 122.121, 213.799 125.685, 214.163 126.271 C 215.257 128.029, 216.069 118.775, 215.153 115 C 214.381 111.820, 214.267 112.126, 213.902 118.352 M 139.755 117.500 C 139.492 118.875, 139.665 120, 140.139 120 C 140.612 120, 141 118.875, 141 117.500 C 141 116.125, 140.827 115, 140.617 115 C 140.406 115, 140.018 116.125, 139.755 117.500 M 148.158 120 C 148.158 121.375, 148.385 121.938, 148.662 121.250 C 148.940 120.563, 148.940 119.438, 148.662 118.750 C 148.385 118.063, 148.158 118.625, 148.158 120 M 211 119.941 C 211 121.073, 211.450 122, 212 122 C 212.550 122, 213 121.352, 213 120.559 C 213 119.766, 212.550 118.840, 212 118.500 C 211.450 118.160, 211 118.809, 211 119.941 M 224.150 120.125 C 224.067 121.569, 223.777 124.269, 223.503 126.125 L 223.007 129.500 224.060 126.144 C 224.639 124.298, 224.929 121.598, 224.706 120.144 L 224.300 117.500 224.150 120.125 M 207.692 119.689 C 206.944 120.900, 208.088 126, 209.108 126 C 209.589 126, 209.835 124.648, 209.654 122.996 C 209.297 119.736, 208.497 118.387, 207.692 119.689 M 232.232 126 C 232.232 127.925, 232.438 128.713, 232.689 127.750 C 232.941 126.787, 232.941 125.213, 232.689 124.250 C 232.438 123.287, 232.232 124.075, 232.232 126 M 307.500 124 C 307.160 124.550, 307.359 125, 307.941 125 C 308.523 125, 309 124.550, 309 124 C 309 123.450, 308.802 123, 308.559 123 C 308.316 123, 307.840 123.450, 307.500 124 M 140.015 126.691 C 140.007 127.896, 140.450 129.160, 141 129.500 C 142.273 130.287, 142.273 127.970, 141 126 C 140.212 124.781, 140.028 124.910, 140.015 126.691 M 169 125.773 C 169 126.198, 170.494 127.350, 172.320 128.333 C 175.104 129.832, 176.073 129.924, 178.320 128.900 C 179.794 128.228, 181 127.301, 181 126.839 C 181 125.709, 178.286 125.776, 176.072 126.961 C 174.812 127.636, 173.713 127.496, 172.388 126.493 C 170.270 124.889, 169 124.619, 169 125.773 M 211.667 126.667 C 211.300 127.033, 211 128.189, 211 129.234 C 211 130.680, 210.521 130.983, 209 130.500 C 207.321 129.967, 207.002 130.318, 207.015 132.683 C 207.028 135.051, 208.763 139.545, 209.068 138 C 209.122 137.725, 209.279 136.488, 209.416 135.250 C 209.753 132.215, 210.907 131.238, 212.039 133.029 C 212.699 134.072, 212.974 133.263, 212.985 130.250 C 213 125.919, 212.843 125.490, 211.667 126.667 M 146.082 132.500 C 145.383 134.700, 144.644 140.325, 144.439 145 C 144.075 153.305, 144.098 153.408, 145.456 149.500 C 146.221 147.300, 146.881 144.233, 146.923 142.684 C 146.965 141.136, 147.401 139.111, 147.891 138.184 C 148.381 137.258, 148.461 134.700, 148.067 132.500 L 147.352 128.500 146.082 132.500 M 223.649 132.758 C 222.120 135.233, 220 150.367, 220 158.809 C 220 167.462, 220.316 169.296, 222.520 173.441 C 223.905 176.047, 224.498 177.999, 223.836 177.779 C 221.800 177.100, 218.875 170.349, 218.080 164.493 C 217.094 157.223, 215.538 155.675, 215.374 161.800 C 215.304 164.385, 214.956 168.075, 214.600 170 C 214.244 171.925, 213.808 177.149, 213.633 181.609 L 213.313 189.719 216.406 189.021 C 218.108 188.637, 219.838 188.251, 220.250 188.162 C 220.662 188.073, 223.250 188, 226 188 C 229.849 188, 231 187.643, 231 186.450 C 231 184.443, 228.365 179.365, 226.197 177.195 C 224.705 175.701, 224.500 172.867, 224.500 153.751 C 224.500 141.791, 224.414 132.004, 224.309 132.003 C 224.204 132.001, 223.907 132.341, 223.649 132.758 M 104.713 144 C 103.928 155.144, 102.522 165.779, 101.506 168.250 C 100.955 169.589, 101.278 170, 102.880 170 C 104.229 170, 105.855 168.605, 107.447 166.084 C 108.807 163.930, 110.387 161.879, 110.959 161.525 C 112.888 160.333, 112.052 153.093, 109.368 147.745 C 107.920 144.860, 106.431 140.700, 106.059 138.500 C 105.495 135.171, 105.270 136.094, 104.713 144 M 140.705 137.750 C 140.200 140.377, 140.523 141.810, 141.419 140.915 C 142.465 139.868, 143.129 135, 142.225 135 C 141.679 135, 140.995 136.238, 140.705 137.750 M 164.645 137.033 C 165.115 137.497, 166.720 138.037, 168.212 138.234 C 169.704 138.430, 171.241 138.908, 171.629 139.296 C 173.010 140.677, 175.959 140.055, 175.365 138.508 C 174.880 137.244, 175.798 137.108, 181.396 137.613 C 185.991 138.028, 188 137.866, 188 137.080 C 188 136.295, 184.298 135.986, 175.895 136.070 C 169.237 136.136, 164.174 136.569, 164.645 137.033 M 245.079 137.583 C 245.127 138.748, 245.364 138.985, 245.683 138.188 C 245.972 137.466, 245.936 136.603, 245.604 136.271 C 245.272 135.939, 245.036 136.529, 245.079 137.583 M 203.473 138.354 C 202.908 138.984, 201.377 141.075, 200.070 143 C 198.764 144.925, 194.602 149.569, 190.823 153.321 L 183.952 160.141 176.979 159.740 C 173.144 159.520, 169.874 159.150, 169.713 158.920 C 169.553 158.689, 167.914 156.725, 166.071 154.556 L 162.721 150.613 163.427 156.556 C 164.760 167.776, 167.108 171.439, 171.151 168.607 C 173.108 167.236, 173.102 167.199, 170.788 166.357 C 168.792 165.630, 168.536 165.046, 169.099 162.500 C 169.629 160.106, 169.787 159.960, 169.882 161.781 C 170.016 164.372, 172.595 165.805, 174.211 164.189 C 174.980 163.420, 174.675 163.272, 173.144 163.673 C 171.605 164.075, 171 163.777, 171 162.617 C 171 161.559, 171.864 161, 173.500 161 C 175.407 161, 176.015 161.534, 176.063 163.250 L 176.127 165.500 177.055 163.186 C 178.103 160.572, 180 161.122, 180 164.040 C 180 165.256, 179.082 166.192, 177.500 166.589 C 175.936 166.982, 175 167.925, 175 169.108 C 175 170.401, 174.288 171.002, 172.750 171.007 C 170.659 171.013, 170.712 171.158, 173.500 173.064 C 177.621 175.881, 183.890 175.088, 192.744 170.629 C 201.548 166.195, 205.955 161.366, 206.125 155.965 C 206.288 150.781, 206.369 150.298, 207.210 149.457 C 207.601 149.066, 207.231 147.413, 206.388 145.783 C 205.545 144.153, 205.051 142.298, 205.289 141.660 C 205.528 141.022, 205.448 139.759, 205.112 138.854 C 204.661 137.641, 204.230 137.509, 203.473 138.354 M 212.079 139.583 C 212.127 140.748, 212.364 140.985, 212.683 140.188 C 212.972 139.466, 212.936 138.603, 212.604 138.271 C 212.272 137.939, 212.036 138.529, 212.079 139.583 M 247 140.941 C 247 141.459, 247.445 142.157, 247.989 142.493 C 248.555 142.843, 248.723 142.442, 248.382 141.552 C 247.717 139.820, 247 139.503, 247 140.941 M 207.032 141.559 C 207.014 142.141, 207.661 143.491, 208.468 144.559 C 209.276 145.626, 209.951 146.024, 209.968 145.441 C 209.986 144.859, 209.339 143.509, 208.532 142.441 C 207.724 141.374, 207.049 140.976, 207.032 141.559 M 171 143.032 C 171 143.921, 173.544 145, 175.641 145 C 176.453 145, 176.873 144.604, 176.574 144.119 C 175.874 142.987, 171 142.036, 171 143.032 M 212.158 144 C 212.158 145.375, 212.385 145.938, 212.662 145.250 C 212.940 144.563, 212.940 143.438, 212.662 142.750 C 212.385 142.063, 212.158 142.625, 212.158 144 M 140.755 145.500 C 141.018 146.875, 141.406 148, 141.617 148 C 141.827 148, 142 146.875, 142 145.500 C 142 144.125, 141.612 143, 141.139 143 C 140.665 143, 140.492 144.125, 140.755 145.500 M 233.695 144.639 C 232.632 145.701, 232.916 163.917, 234.074 169 C 234.639 171.475, 236.872 177.123, 239.038 181.550 C 241.204 185.978, 244.087 192.278, 245.446 195.550 C 248.399 202.665, 248.746 200.704, 246.099 191.855 C 245.054 188.360, 243.650 182.350, 242.981 178.500 C 241.341 169.076, 236.185 147.153, 235.189 145.374 C 234.749 144.588, 234.077 144.257, 233.695 144.639 M 249 144.365 C 249 145.554, 251.869 152, 252.398 152 C 252.673 152, 252.199 150.313, 251.344 148.250 C 249.739 144.378, 249 143.153, 249 144.365 M 146.624 149.539 C 145.659 152.053, 145.943 152.702, 147.122 150.675 C 147.706 149.671, 147.973 148.639, 147.715 148.382 C 147.458 148.124, 146.966 148.645, 146.624 149.539 M 211.767 150.250 C 212.284 152.254, 212.164 152.350, 210.673 151.128 C 209.753 150.373, 208.963 150.148, 208.918 150.628 C 208.873 151.107, 208.640 152.676, 208.402 154.114 C 208.141 155.685, 208.573 157.231, 209.484 157.987 C 211.057 159.292, 211.508 158.479, 211.053 155.158 C 210.953 154.420, 211.599 153.283, 212.489 152.631 C 213.481 151.906, 213.852 150.779, 213.447 149.724 C 212.475 147.189, 211.090 147.623, 211.767 150.250 M 89.562 155.361 C 87.247 157.213, 85.762 157.616, 82.562 157.261 C 79.480 156.918, 77.945 157.293, 76.200 158.815 C 74.717 160.109, 74.291 161.062, 74.999 161.499 C 75.760 161.970, 75.780 162.560, 75.062 163.425 C 73.564 165.230, 70.878 173.211, 71.544 173.877 C 71.854 174.188, 72.571 173.780, 73.135 172.971 C 73.897 171.880, 74 172.237, 73.537 174.351 C 72.642 178.431, 74.685 184, 77.078 184 C 78.135 184, 79 183.550, 79 183 C 79 182.450, 79.675 182, 80.500 182 C 81.907 182, 82.477 180.736, 82.054 178.555 C 81.792 177.208, 84.261 172.650, 85.774 171.686 C 86.694 171.100, 86.861 169.434, 86.371 165.737 C 85.691 160.610, 85.696 160.597, 90.095 156.804 C 94.850 152.703, 94.402 151.488, 89.562 155.361 M 137.902 155.750 C 137.325 157.262, 135.767 162.241, 134.440 166.814 C 133.113 171.387, 130.857 177.912, 129.426 181.314 C 122.513 197.750, 121.678 201.032, 121.216 213.560 L 120.771 225.620 123.386 227.333 L 126 229.046 126 223.082 C 126 215.212, 127.963 213.918, 128.110 221.691 L 128.219 227.500 129.081 223.112 C 130.326 216.772, 131 216.849, 131 223.333 C 131 229.246, 132.912 231.427, 133.118 225.750 C 133.184 223.963, 133.172 222.129, 133.094 221.676 C 133.015 221.222, 133.412 221.136, 133.975 221.485 C 134.539 221.833, 135 221.586, 135 220.937 C 135 220.062, 135.348 220.044, 136.342 220.869 C 137.080 221.481, 137.973 221.694, 138.326 221.340 C 138.680 220.987, 138.194 220.131, 137.247 219.439 C 135.621 218.250, 135.629 217.872, 137.391 212.690 C 138.456 209.558, 139.046 205.768, 138.766 203.862 C 138.497 202.026, 138.620 199.326, 139.039 197.863 C 139.459 196.400, 139.455 194.819, 139.030 194.351 C 137.783 192.976, 136.786 187.750, 137.903 188.440 C 138.503 188.811, 138.898 186.797, 138.916 183.274 C 138.931 180.098, 139.001 176.429, 139.070 175.119 C 139.139 173.810, 138.639 172.395, 137.960 171.975 C 137.043 171.409, 137.276 170.620, 138.862 168.917 C 140.038 167.655, 141 167.158, 141 167.811 C 141 168.465, 141.450 169, 142 169 C 143.657 169, 143.130 167.091, 140.962 165.240 C 139.205 163.741, 139.014 162.774, 139.577 158.250 C 140.290 152.522, 139.553 151.422, 137.902 155.750 M 145 155.941 C 145 157.073, 145.450 158, 146 158 C 146.550 158, 147 157.352, 147 156.559 C 147 155.766, 146.550 154.840, 146 154.500 C 145.450 154.160, 145 154.809, 145 155.941 M 106.673 157.883 C 106.356 159.469, 105.827 162.057, 105.496 163.633 L 104.896 166.500 106.534 163.647 C 108.372 160.445, 109.344 155, 108.077 155 C 107.622 155, 106.990 156.298, 106.673 157.883 M 148.400 158.571 C 147.174 161.154, 146.474 161.776, 145.868 160.821 C 144.981 159.422, 144.973 159.462, 144.607 167.500 C 144.507 169.700, 144.276 171.950, 144.094 172.500 C 143.912 173.050, 143.816 175.398, 143.882 177.719 C 143.979 181.189, 144.290 181.826, 145.636 181.309 C 146.771 180.874, 147.116 181.114, 146.761 182.091 C 146.480 182.866, 145.744 183.388, 145.125 183.250 C 144.417 183.093, 144 184.730, 144 187.671 C 144 190.692, 143.382 193.049, 142.250 194.341 C 140.583 196.244, 140.583 196.309, 142.250 195.701 C 143.661 195.186, 144 195.624, 144 197.960 C 144 199.553, 143.252 201.605, 142.338 202.519 C 140.939 203.918, 140.898 204.319, 142.081 205.050 C 143.074 205.664, 143.761 205.270, 144.424 203.709 C 145.160 201.976, 145.508 203.223, 146.037 209.500 C 146.852 219.171, 147.808 223.764, 149.184 224.614 C 149.847 225.024, 149.959 224.445, 149.496 222.988 C 148.100 218.590, 148.877 200.626, 150.846 191.786 C 152.174 185.824, 152.425 183.139, 151.643 183.286 C 151.014 183.404, 150.154 184.175, 149.732 185 C 149.309 185.825, 149.221 184.700, 149.535 182.500 C 149.850 180.300, 150.292 176.700, 150.517 174.500 C 150.882 170.946, 150.833 170.834, 150.082 173.500 L 149.237 176.500 149.118 173.550 C 149.037 171.513, 148.679 170.921, 147.963 171.637 C 147.267 172.333, 147.249 173.525, 147.909 175.260 C 148.651 177.213, 148.541 178.136, 147.458 179.035 C 146.319 179.980, 145.892 179.881, 145.383 178.556 C 144.361 175.893, 146.351 170.589, 148.776 169.513 C 149.999 168.970, 151 168.156, 151 167.704 C 151 167.252, 150.550 167.160, 150 167.500 C 149.450 167.840, 149 167.165, 149 166 C 149 164.835, 149.450 164.160, 150 164.500 C 150.575 164.855, 151.006 163.924, 151.014 162.309 C 151.021 160.764, 151.299 158.488, 151.630 157.250 C 152.591 153.666, 150.278 154.611, 148.400 158.571 M 141.079 159.583 C 141.127 160.748, 141.364 160.985, 141.683 160.188 C 141.972 159.466, 141.936 158.603, 141.604 158.271 C 141.272 157.939, 141.036 158.529, 141.079 159.583 M 77.487 159.979 C 77.820 160.518, 77.590 161.897, 76.977 163.043 C 76.141 164.604, 76.165 165.494, 77.071 166.586 C 78.422 168.213, 79.447 167.159, 81.774 161.750 C 82.917 159.094, 82.853 159, 79.920 159 C 78.192 159, 77.143 159.422, 77.487 159.979 M 167.079 160.583 C 167.127 161.748, 167.364 161.985, 167.683 161.188 C 167.972 160.466, 167.936 159.603, 167.604 159.271 C 167.272 158.939, 167.036 159.529, 167.079 160.583 M 208.622 165.750 C 209.563 169.676, 210 169.808, 210 166.167 C 210 164.425, 209.541 163, 208.981 163 C 208.376 163, 208.230 164.117, 208.622 165.750 M 160 165.500 C 160 166.325, 160.436 167, 160.969 167 C 161.501 167, 161.678 166.325, 161.362 165.500 C 161.045 164.675, 160.609 164, 160.393 164 C 160.177 164, 160 164.675, 160 165.500 M 204.939 164.587 C 203.642 167.801, 190.162 175.316, 183.426 176.580 C 180.565 177.117, 180.205 177.438, 181.424 178.367 C 183.774 180.159, 185.161 184.830, 183.992 187.014 C 182.515 189.774, 178.926 192, 175.952 192 C 172.457 192, 169 188.149, 169 184.257 C 169 181.268, 171.126 178, 173.071 178 C 175.027 178, 173.879 176.343, 171.292 175.434 C 168.701 174.522, 168.443 174.748, 165.292 180.685 C 161.048 188.683, 161.101 189.672, 165.810 190.468 L 169.620 191.112 169.205 196.838 C 168.765 202.919, 169.941 206.806, 174.653 214.850 C 176.505 218.012, 177.501 218.899, 178.300 218.100 C 180.027 216.373, 183.803 216.785, 184.262 218.750 C 184.496 219.748, 185.009 218.782, 185.456 216.500 C 185.888 214.300, 187.274 210.475, 188.535 208 C 189.797 205.525, 191.073 201.757, 191.372 199.626 C 192.031 194.920, 194.407 192.032, 197.049 192.723 C 198.114 193.002, 201.049 192.920, 203.571 192.542 C 207.318 191.980, 208.039 191.547, 207.511 190.177 C 206.366 187.211, 205.974 174.134, 207.011 173.493 C 207.589 173.136, 208.057 174.463, 208.136 176.691 C 208.223 179.129, 208.431 179.668, 208.714 178.189 C 208.957 176.918, 209.795 175.632, 210.578 175.332 C 211.360 175.032, 212 174.173, 212 173.424 C 212 172.676, 211.397 172.294, 210.660 172.577 C 208.884 173.259, 206.906 170.750, 206.061 166.744 C 205.685 164.960, 205.180 163.989, 204.939 164.587 M 223.079 170.583 C 223.127 171.748, 223.364 171.985, 223.683 171.188 C 223.972 170.466, 223.936 169.603, 223.604 169.271 C 223.272 168.939, 223.036 169.529, 223.079 170.583 M 246 169.882 C 246 170.432, 246.450 171.160, 247 171.500 C 247.550 171.840, 248 171.668, 248 171.118 C 248 170.568, 247.550 169.840, 247 169.500 C 246.450 169.160, 246 169.332, 246 169.882 M 152.921 172.250 C 153.981 173.651, 153.996 174.299, 153 175.500 C 152.315 176.325, 152.005 177, 152.309 177 C 152.614 177, 153.889 175.537, 155.143 173.750 C 156.396 171.963, 156.731 171.052, 155.887 171.726 C 154.675 172.694, 154.063 172.694, 152.974 171.726 C 151.811 170.691, 151.802 170.772, 152.921 172.250 M 163 174.167 C 163 177.826, 164.021 177.416, 164.441 173.588 C 164.597 172.165, 164.337 171, 163.862 171 C 163.388 171, 163 172.425, 163 174.167 M 80 174.059 C 80 174.641, 80.450 174.840, 81 174.500 C 81.550 174.160, 82 173.684, 82 173.441 C 82 173.198, 81.550 173, 81 173 C 80.450 173, 80 173.477, 80 174.059 M 74 176.750 C 74 177.438, 74.450 178, 75 178 C 75.550 178, 76 179.125, 76 180.500 C 76 183.538, 77.556 183.806, 78.316 180.899 C 78.659 179.588, 79.315 179.077, 80.062 179.539 C 80.825 180.010, 81.084 179.774, 80.776 178.889 C 80.510 178.125, 79.463 177.653, 78.450 177.839 C 77.011 178.104, 76.851 177.885, 77.719 176.839 C 78.595 175.783, 78.319 175.500, 76.415 175.500 C 75.087 175.500, 74 176.063, 74 176.750 M 157.695 183.706 C 154.483 190.384, 151.597 200.264, 152.572 201.239 C 152.739 201.405, 153.133 204.650, 153.450 208.450 C 154.207 217.544, 155 218.071, 155 209.480 C 155 202.619, 157.533 191.596, 160.938 183.637 C 161.911 181.362, 162.423 178.693, 162.076 177.706 C 161.608 176.380, 160.466 177.943, 157.695 183.706 M 177.992 179.893 C 179.363 180.274, 181.043 181.692, 181.727 183.043 C 182.515 184.599, 182.976 184.915, 182.985 183.905 C 183.005 181.753, 179.791 178.977, 177.421 179.100 C 175.965 179.175, 176.103 179.367, 177.992 179.893 M 171.136 183.668 C 170.959 186.486, 171.946 189, 173.229 189 C 173.911 189, 173.907 188.589, 173.218 187.750 C 172.654 187.063, 171.985 185.375, 171.732 184 C 171.332 181.823, 171.255 181.780, 171.136 183.668 M 141 187.500 C 141 189.425, 141.176 191, 141.391 191 C 141.605 191, 141.965 189.425, 142.190 187.500 C 142.415 185.575, 142.239 184, 141.799 184 C 141.360 184, 141 185.575, 141 187.500 M 208.015 185.250 C 208.024 185.938, 208.417 187.111, 208.890 187.857 C 209.989 189.591, 211.436 187.579, 210.620 185.452 C 209.938 183.675, 207.994 183.524, 208.015 185.250 M 147.158 188 C 147.158 189.375, 147.385 189.938, 147.662 189.250 C 147.940 188.563, 147.940 187.438, 147.662 186.750 C 147.385 186.063, 147.158 186.625, 147.158 188 M 159 195.647 C 159 196.553, 159.864 199.816, 160.920 202.897 C 161.976 205.979, 163.860 212.213, 165.107 216.750 C 166.353 221.287, 167.674 225, 168.043 225 C 168.641 225, 166.571 216.965, 161.539 199.750 C 159.848 193.967, 159 192.596, 159 195.647 M 210 195.382 C 210 196.207, 210.450 197.160, 211 197.500 C 211.550 197.840, 212 197.443, 212 196.618 C 212 195.793, 211.550 194.840, 211 194.500 C 210.450 194.160, 210 194.557, 210 195.382 M 97.054 200.068 C 94.270 206.206, 94.397 208, 97.613 208 C 99.949 208, 100.180 207.680, 99.787 205 C 99.545 203.350, 99.670 202, 100.066 202 C 101.638 202, 101.993 198.565, 100.569 197.141 C 99.230 195.802, 98.844 196.123, 97.054 200.068 M 254.664 200.527 C 255.522 203.047, 256.444 204.889, 256.712 204.621 C 257.367 203.966, 255.083 197.169, 253.978 196.487 C 253.497 196.189, 253.805 198.007, 254.664 200.527 M 140.710 199 C 140.423 200.100, 140.595 201, 141.094 201 C 141.592 201, 142 200.100, 142 199 C 142 197.900, 141.827 197, 141.617 197 C 141.406 197, 140.998 197.900, 140.710 199 M 210.015 206.191 C 210.007 207.121, 210.450 208.160, 211 208.500 C 212.266 209.282, 212.266 207.958, 211 206 C 210.165 204.707, 210.029 204.734, 210.015 206.191 M 257.086 207 C 257.055 207.825, 257.467 209.175, 258 210 C 259.181 211.828, 259.181 210.249, 258 207.500 C 257.433 206.181, 257.122 206.011, 257.086 207 M 141.500 213 C 141.125 214.183, 141.042 215.376, 141.317 215.651 C 141.592 215.926, 142.125 215.183, 142.500 214 C 142.875 212.817, 142.958 211.624, 142.683 211.349 C 142.408 211.074, 141.875 211.817, 141.500 213 M 180.598 212.736 C 179.394 213.939, 180.051 215, 182 215 C 183.100 215, 184 214.598, 184 214.107 C 184 212.983, 181.399 211.934, 180.598 212.736 M 210.772 213.763 C 210.494 214.826, 210.866 216.777, 211.598 218.098 L 212.929 220.500 212.949 217.500 C 212.976 213.582, 211.487 211.028, 210.772 213.763 M 138.697 214.393 C 138.288 215.434, 138.189 216.522, 138.476 216.810 C 139.389 217.722, 140.191 216.227, 139.809 214.328 C 139.459 212.588, 139.405 212.591, 138.697 214.393 M 259.031 214.500 C 259.031 215.050, 259.467 216.175, 260 217 C 260.533 217.825, 260.969 218.050, 260.969 217.500 C 260.969 216.950, 260.533 215.825, 260 215 C 259.467 214.175, 259.031 213.950, 259.031 214.500 M 85.500 219.666 C 78.303 221.863, 77.904 222.388, 80.120 226.735 C 81.154 228.763, 82 231.191, 82 232.130 C 82 234.847, 83.106 237, 84.501 237 C 85.436 237, 85.762 235.109, 85.691 230.097 C 85.493 215.929, 93.099 216.745, 95.946 231.197 C 97.473 238.945, 97.914 240.420, 98.523 239.811 C 98.784 239.549, 98.476 235.642, 97.838 231.129 C 96.549 222.016, 97.153 220.320, 101.311 221.363 C 102.885 221.758, 104.546 223.512, 105.930 226.240 C 107.255 228.852, 107.885 229.533, 107.559 228 C 107.267 226.625, 107.021 224.792, 107.014 223.927 C 106.994 221.694, 99.006 217.987, 94.390 218.070 C 92.251 218.108, 88.250 218.826, 85.500 219.666 M 178.935 221.121 C 178.254 222.393, 178.210 222.988, 178.825 222.608 C 179.388 222.260, 180.055 222.769, 180.308 223.738 C 180.561 224.707, 180.820 224.037, 180.884 222.250 C 181.019 218.466, 180.513 218.173, 178.935 221.121 M 182.232 222 C 182.232 223.925, 182.438 224.713, 182.689 223.750 C 182.941 222.787, 182.941 221.213, 182.689 220.250 C 182.438 219.287, 182.232 220.075, 182.232 222 M 71.667 222.667 C 70.334 223.999, 71.058 224.874, 73.750 225.184 C 75.728 225.411, 76.500 226.062, 76.500 227.500 C 76.500 228.600, 77.175 230.063, 78 230.750 C 79.239 231.783, 79.065 231.843, 77 231.096 C 75.625 230.599, 74.636 229.628, 74.803 228.938 C 75.080 227.791, 73.352 226.052, 71.899 226.015 C 71.569 226.007, 71.667 228.363, 72.116 231.250 C 73.296 238.825, 73.923 241, 74.925 241 C 75.413 241, 75.577 240.100, 75.290 239 C 74.932 237.632, 75.259 237, 76.324 237 C 77.181 237, 78.134 236.592, 78.442 236.093 C 78.751 235.595, 78.102 235.422, 77.001 235.710 C 75.442 236.118, 75 235.741, 75 234.008 C 75 232.134, 75.394 231.882, 77.500 232.411 C 80.398 233.138, 80.336 233.299, 78.858 228.899 C 77.021 223.428, 73.745 220.589, 71.667 222.667 M 87.667 222.667 C 86.509 223.824, 86.954 228.389, 88.517 231.385 C 89.738 233.727, 89.784 234.573, 88.761 235.885 C 87.672 237.279, 87.715 237.333, 89.074 236.274 C 90.317 235.306, 90.937 235.306, 92.026 236.274 C 93.184 237.305, 93.199 237.229, 92.116 235.794 C 91.407 234.855, 91.148 233.570, 91.539 232.937 C 92.561 231.284, 93.966 233.798, 93.985 237.316 C 94.003 240.616, 95.609 244, 97.158 244 C 97.940 244, 97.940 243.633, 97.158 242.691 C 96.561 241.971, 95.431 237.690, 94.648 233.179 C 93.865 228.667, 92.669 224.306, 91.990 223.488 C 90.685 221.916, 88.779 221.554, 87.667 222.667 M 99.156 223.312 C 97.692 225.076, 99.113 232.621, 100.838 232.250 C 102.402 231.914, 102.327 233.702, 100.750 234.338 C 100.003 234.639, 100.205 234.874, 101.250 234.921 C 103.281 235.013, 103.699 231.449, 101.750 230.662 C 101.003 230.361, 101.205 230.126, 102.250 230.079 C 103.616 230.017, 104 230.813, 104 233.700 C 104 236.181, 104.331 237.069, 105.006 236.394 C 106.496 234.904, 104.594 226.149, 102.275 223.831 C 100.621 222.177, 100.162 222.100, 99.156 223.312 M 108.721 223.250 C 108.032 225.179, 110.693 229.686, 112.854 230.252 C 114.017 230.556, 115.061 232.001, 115.473 233.879 C 115.850 235.595, 116.573 237, 117.079 237 C 117.586 237, 118 237.675, 118 238.500 C 118 240.513, 120.293 240.396, 122.922 238.250 C 126.102 235.653, 124.842 230.694, 120.324 228.028 C 118.433 226.913, 116.675 226, 116.417 226 C 115.250 226, 119.119 231.832, 120.685 232.433 C 122.187 233.009, 122.229 233.244, 120.972 234.038 C 118.553 235.568, 118.173 235.244, 115.363 229.250 C 112.128 222.351, 109.794 220.243, 108.721 223.250 M 58.057 224.893 C 56.448 227.900, 60.060 231.638, 65.748 232.851 C 68.348 233.405, 70.552 233.778, 70.647 233.679 C 70.741 233.581, 70.350 231.137, 69.777 228.250 L 68.735 223 63.903 223 C 60.185 223, 58.837 223.437, 58.057 224.893 M 180.301 227.402 C 180.824 228.972, 182.710 229.198, 183.263 227.757 C 183.577 226.940, 183.042 226.429, 181.874 226.429 C 180.830 226.429, 180.122 226.867, 180.301 227.402 M 248.158 228 C 248.158 229.375, 248.385 229.938, 248.662 229.250 C 248.940 228.563, 248.940 227.438, 248.662 226.750 C 248.385 226.063, 248.158 226.625, 248.158 228 M 260.079 227.583 C 260.127 228.748, 260.364 228.985, 260.683 228.188 C 260.972 227.466, 260.936 226.603, 260.604 226.271 C 260.272 225.939, 260.036 226.529, 260.079 227.583 M 89.500 230 C 88.423 231.742, 90.019 233.229, 91.578 231.935 C 92.348 231.296, 92.731 230.374, 92.430 229.887 C 91.700 228.706, 90.265 228.762, 89.500 230 M 112.148 234 C 112.194 235.936, 112.449 236.653, 112.717 235.605 C 113.107 234.082, 113.376 233.984, 114.086 235.105 C 114.572 235.872, 114.976 236.024, 114.985 235.441 C 114.993 234.859, 114.339 233.509, 113.532 232.441 C 112.153 230.618, 112.069 230.714, 112.148 234 M 108.015 234.750 C 108.007 235.988, 108.450 237, 109 237 C 110.253 237, 110.253 235.939, 109 234 C 108.216 232.787, 108.028 232.931, 108.015 234.750 M 80.116 237.683 C 80.029 240.068, 80.511 241.028, 82.042 241.513 C 83.502 241.977, 83.910 242.708, 83.474 244.081 C 83.133 245.155, 83.335 246, 83.933 246 C 84.520 246, 85.032 245.438, 85.070 244.750 C 85.109 244.063, 85.527 244.400, 86 245.500 C 87.294 248.512, 87.280 244.865, 85.983 241.456 C 85.144 239.248, 84.711 238.995, 83.495 240.004 C 81.935 241.299, 81.661 240.960, 80.675 236.500 C 80.398 235.249, 80.189 235.691, 80.116 237.683 M 136.767 240.250 C 136.524 242.588, 136.729 245.615, 137.224 246.978 C 138.681 250.991, 138.442 258.270, 136.747 261.500 C 135.881 263.150, 133.784 266.044, 132.085 267.931 C 129.269 271.062, 129.032 271.851, 129.386 276.931 C 129.599 279.994, 130.506 284.075, 131.402 286 C 132.297 287.925, 132.777 288.620, 132.467 287.545 C 132.158 286.470, 131.639 283.648, 131.314 281.273 C 130.804 277.550, 130.948 277.043, 132.361 277.585 C 133.578 278.052, 134 277.639, 134 275.985 C 134 274.200, 133.724 273.984, 132.617 274.903 C 131.546 275.792, 131.094 275.688, 130.617 274.444 C 129.655 271.938, 129.910 270.313, 131 272 C 131.646 273, 131.974 273.083, 131.985 272.250 C 132.019 269.457, 134.934 271.155, 135.419 274.250 C 137.809 289.493, 138.421 292.689, 139.202 294 C 139.882 295.142, 139.980 295.023, 139.610 293.500 C 139.343 292.400, 139.011 287, 138.871 281.500 C 138.732 276, 138.217 270.674, 137.728 269.664 C 136.533 267.199, 137.211 266.749, 140.333 267.937 C 141.807 268.497, 143.553 270.359, 144.343 272.215 C 146.737 277.835, 150.268 280.277, 156.742 280.791 C 162.176 281.222, 163.740 280.413, 159.173 279.533 C 154.126 278.561, 149.828 275.562, 147.301 271.250 C 144.479 266.435, 139.100 245.930, 139.038 239.750 C 138.986 234.631, 137.314 234.999, 136.767 240.250 M 106.030 239.152 C 106.013 240.104, 107.272 241.248, 109 241.850 C 110.650 242.425, 112 243.369, 112 243.948 C 112 244.527, 112.460 245, 113.023 245 C 113.586 245, 113.294 243.852, 112.375 242.450 C 111.456 241.047, 110.108 240.128, 109.379 240.408 C 108.649 240.688, 107.605 240.148, 107.057 239.208 C 106.152 237.657, 106.058 237.652, 106.030 239.152 M 89.079 240.583 C 89.127 241.748, 89.364 241.985, 89.683 241.188 C 89.972 240.466, 89.936 239.603, 89.604 239.271 C 89.272 238.939, 89.036 239.529, 89.079 240.583 M 252 241 C 251.411 242.100, 251.155 243, 251.430 243 C 251.705 243, 252.411 242.100, 253 241 C 253.589 239.900, 253.845 239, 253.570 239 C 253.295 239, 252.589 239.900, 252 241 M 80 243.882 C 80 244.432, 80.450 245.160, 81 245.500 C 81.550 245.840, 82 245.668, 82 245.118 C 82 244.568, 81.550 243.840, 81 243.500 C 80.450 243.160, 80 243.332, 80 243.882 M 104.195 245.500 C 104.215 247.150, 104.439 247.704, 104.693 246.731 C 104.947 245.758, 104.930 244.408, 104.656 243.731 C 104.382 243.054, 104.175 243.850, 104.195 245.500 M 106.374 244.467 C 106.065 245.274, 106.043 246.511, 106.327 247.217 C 106.610 247.923, 106.878 247.435, 106.921 246.133 C 106.983 244.274, 107.429 243.879, 109.001 244.290 C 110.102 244.578, 110.751 244.405, 110.442 243.907 C 109.566 242.489, 106.997 242.843, 106.374 244.467 M 218.444 245.500 C 218.838 247.150, 219.397 250.190, 219.686 252.256 C 219.975 254.322, 220.614 256.261, 221.106 256.565 C 221.598 256.869, 222 257.822, 222 258.683 C 222 260.353, 229.485 275.857, 231.061 277.450 C 232.353 278.757, 232.281 275.394, 230.965 272.934 C 230.395 271.870, 230.203 271, 230.536 271 C 231.739 271, 234 273.891, 234 275.429 C 234 276.311, 234.841 277, 235.918 277 C 238.673 277, 241.074 278.072, 240.478 279.036 C 240.197 279.490, 240.350 280.098, 240.817 280.387 C 241.284 280.676, 241.667 280.298, 241.667 279.547 C 241.667 278.796, 239.437 276.003, 236.711 273.341 C 233.735 270.433, 230.268 265.505, 228.030 261 C 223.352 251.584, 219.146 243.797, 218.343 243.063 C 218.004 242.753, 218.049 243.850, 218.444 245.500 M 118.158 247 C 118.158 248.375, 118.385 248.938, 118.662 248.250 C 118.940 247.563, 118.940 246.438, 118.662 245.750 C 118.385 245.063, 118.158 245.625, 118.158 247 M 99.079 247.583 C 99.127 248.748, 99.364 248.985, 99.683 248.188 C 99.972 247.466, 99.936 246.603, 99.604 246.271 C 99.272 245.939, 99.036 246.529, 99.079 247.583 M 116.079 247.583 C 116.127 248.748, 116.364 248.985, 116.683 248.188 C 116.972 247.466, 116.936 246.603, 116.604 246.271 C 116.272 245.939, 116.036 246.529, 116.079 247.583 M 91 250.488 C 91 250.661, 92.549 251.717, 94.443 252.834 C 96.369 253.970, 97.679 254.326, 97.416 253.642 C 97.011 252.585, 91 249.631, 91 250.488 M 99 256.059 C 99 256.641, 99.500 256.809, 100.112 256.431 C 100.723 256.053, 101.616 256.364, 102.096 257.122 C 102.787 258.212, 102.973 258.134, 102.985 256.750 C 102.994 255.662, 102.244 255, 101 255 C 99.900 255, 99 255.477, 99 256.059 M 104.158 257 C 104.158 258.375, 104.385 258.938, 104.662 258.250 C 104.940 257.563, 104.940 256.438, 104.662 255.750 C 104.385 255.063, 104.158 255.625, 104.158 257 M 106.362 256.500 C 105.146 259.669, 108.746 262.839, 110.442 260.093 C 110.751 259.595, 110.102 259.422, 109.001 259.710 C 107.441 260.118, 107 259.741, 107 258 C 107 256.259, 107.441 255.882, 109.001 256.290 C 110.102 256.578, 110.751 256.405, 110.442 255.907 C 109.558 254.477, 106.995 254.849, 106.362 256.500 M 112.063 258.050 C 112.123 261.292, 112.185 261.354, 113.094 259.080 C 113.734 257.478, 113.713 256.313, 113.030 255.630 C 112.323 254.923, 112.020 255.682, 112.063 258.050 M 114.954 257.086 C 114.340 258.233, 114.026 259.360, 114.257 259.590 C 114.487 259.820, 115.189 258.882, 115.816 257.504 C 117.194 254.480, 116.523 254.154, 114.954 257.086 M 139 264.819 C 139 266.027, 140.897 267.436, 141.591 266.743 C 141.842 266.491, 141.362 265.716, 140.524 265.020 C 139.574 264.231, 139 264.155, 139 264.819 M 132 269 C 132 269.550, 132.450 270, 133 270 C 133.550 270, 134 269.550, 134 269 C 134 268.450, 133.550 268, 133 268 C 132.450 268, 132 268.450, 132 269 M 141 278.847 C 141 280.073, 146.288 284.641, 148.500 285.325 C 150.422 285.920, 150.427 285.896, 148.607 284.722 C 147.566 284.050, 145.429 282.278, 143.857 280.784 C 142.286 279.290, 141 278.418, 141 278.847 M 232 279.510 C 232 279.830, 233.152 281.243, 234.561 282.652 C 237.249 285.340, 239.233 285.190, 236.975 282.470 C 235.506 280.700, 232 278.614, 232 279.510 M 122.556 280.910 C 121.718 282.266, 125.568 290.620, 127.345 291.302 C 128.395 291.705, 127.943 290.296, 125.927 286.876 C 124.300 284.117, 123.227 281.441, 123.543 280.930 C 123.859 280.418, 123.893 280, 123.618 280 C 123.343 280, 122.865 280.409, 122.556 280.910 M 243.500 281 C 243.840 281.550, 244.316 282, 244.559 282 C 244.802 282, 245 281.550, 245 281 C 245 280.450, 244.523 280, 243.941 280 C 243.359 280, 243.160 280.450, 243.500 281 M 133 290.396 C 133 290.833, 133.640 292.386, 134.422 293.846 C 135.203 295.306, 136.068 297.231, 136.342 298.124 C 136.616 299.018, 138.257 300.243, 139.988 300.846 C 142.762 301.813, 143.091 301.739, 142.758 300.222 C 142.551 299.275, 141.864 298.606, 141.231 298.736 C 140.599 298.867, 138.850 297.292, 137.346 295.236 C 133.650 290.188, 133 289.464, 133 290.396 M 131 294.559 C 131 295.416, 131.457 295.835, 132.016 295.490 C 132.575 295.144, 132.774 294.443, 132.457 293.931 C 131.600 292.544, 131 292.802, 131 294.559 M 144.079 307.583 C 144.127 308.748, 144.364 308.985, 144.683 308.188 C 144.972 307.466, 144.936 306.603, 144.604 306.271 C 144.272 305.939, 144.036 306.529, 144.079 307.583 M 148.511 308.377 C 149.457 309.820, 150.419 311, 150.650 311 C 151.374 311, 149.045 307.146, 147.891 306.433 C 147.287 306.059, 147.566 306.934, 148.511 308.377 M 297.718 310.616 C 296.673 311.660, 296.838 315.238, 298.098 318.851 C 299.325 322.372, 300.163 322.694, 302.365 320.492 C 303.333 319.524, 304.102 319.355, 304.513 320.020 C 304.865 320.590, 304.106 321.994, 302.826 323.141 L 300.500 325.226 303 323.748 C 304.375 322.936, 305.631 321.407, 305.791 320.351 C 306.117 318.206, 298.868 309.465, 297.718 310.616 M 320.666 315.079 C 315.714 317.690, 313.433 318.434, 308.867 318.931 C 308.518 318.969, 308.018 320.125, 307.755 321.500 C 307.283 323.970, 307.359 324, 314.139 324 L 321 324 321 320.559 C 321 316.411, 322.965 314.645, 323.079 318.691 C 323.122 320.236, 323.385 320.938, 323.662 320.250 C 323.940 319.563, 324.804 319, 325.583 319 C 326.363 319, 327.053 318.212, 327.118 317.250 C 327.183 316.288, 327.580 316.850, 328 318.500 C 328.724 321.344, 328.775 321.370, 328.981 319 L 329.199 316.500 330 319 C 331.338 323.179, 331.143 323.610, 327.011 325.589 C 323.777 327.139, 323.021 328.027, 323.011 330.289 C 323 332.983, 323.063 333.017, 324.863 331.289 C 325.888 330.305, 326.977 328.825, 327.284 328 C 327.591 327.175, 327.931 328.075, 328.039 330 L 328.237 333.500 329 330.500 C 329.640 327.985, 329.783 327.874, 329.882 329.809 C 329.947 331.079, 330.450 331.840, 331 331.500 C 333.032 330.244, 331.923 333.940, 329.827 335.408 C 327.959 336.717, 327.881 337.017, 329.269 337.550 C 333.842 339.304, 336.591 334.840, 333.962 329.929 C 333.279 328.653, 333.224 328.020, 333.828 328.394 C 335.667 329.530, 336.243 325.020, 334.583 322.486 C 333.712 321.158, 333 318.999, 333 317.690 C 333 315.117, 330.216 311.999, 327.921 312.002 C 327.140 312.003, 323.875 313.388, 320.666 315.079 M 324 317 C 324 317.550, 324.450 318, 325 318 C 325.550 318, 326 317.550, 326 317 C 326 316.450, 325.550 316, 325 316 C 324.450 316, 324 316.450, 324 317 M 304 329.441 C 304 332.505, 304.570 332.753, 305.289 330.001 C 305.577 328.902, 305.404 327.750, 304.906 327.442 C 304.408 327.134, 304 328.034, 304 329.441 M 309.835 327.808 C 306.392 328.206, 305.522 330.571, 307.885 333.107 C 309.413 334.747, 310.790 335.053, 315.523 334.804 L 321.297 334.500 321.399 330.735 L 321.500 326.970 317 327.235 C 314.525 327.381, 311.301 327.639, 309.835 327.808 M 298 329.941 C 298 331.009, 298.385 332.120, 298.856 332.411 C 299.326 332.702, 299.499 331.828, 299.239 330.470 C 298.675 327.519, 298 327.231, 298 329.941 M 324 329 C 324 329.550, 324.450 330, 325 330 C 325.550 330, 326 329.550, 326 329 C 326 328.450, 325.550 328, 325 328 C 324.450 328, 324 328.450, 324 329 M 306.555 336.911 C 306.199 337.487, 306.427 338.929, 307.061 340.114 C 307.982 341.835, 308.392 341.990, 309.092 340.885 C 309.834 339.713, 309.972 339.718, 309.985 340.917 C 309.993 341.696, 310.284 342.049, 310.631 341.702 C 310.979 341.355, 312.015 341.473, 312.935 341.965 C 314.151 342.616, 314.935 342.333, 315.814 340.926 C 316.478 339.863, 316.679 339.048, 316.261 339.115 C 313.786 339.512, 310.973 338.853, 311.500 338 C 311.840 337.450, 311.678 337, 311.141 337 C 310.603 337, 309.497 336.744, 308.683 336.432 C 307.869 336.119, 306.911 336.335, 306.555 336.911 M 323.015 340.750 C 323.027 342.134, 323.213 342.212, 323.904 341.122 C 324.384 340.364, 325.277 340.053, 325.888 340.431 C 326.500 340.809, 327 340.641, 327 340.059 C 327 339.477, 326.100 339, 325 339 C 323.756 339, 323.006 339.662, 323.015 340.750 M 330.512 340.250 C 330.277 340.938, 330.179 342.699, 330.293 344.164 C 330.579 347.839, 333 345.794, 333 341.878 C 333 338.998, 331.313 337.895, 330.512 340.250 M 331.158 342 C 331.158 343.375, 331.385 343.938, 331.662 343.250 C 331.940 342.563, 331.940 341.438, 331.662 340.750 C 331.385 340.063, 331.158 340.625, 331.158 342 M 307 345.424 C 307 346.270, 308.146 347.250, 309.547 347.601 C 313.216 348.522, 313.400 347.667, 309.969 345.641 C 307.392 344.118, 307 344.090, 307 345.424 M 180.269 365.693 C 181.242 365.947, 182.592 365.930, 183.269 365.656 C 183.946 365.382, 183.150 365.175, 181.500 365.195 C 179.850 365.215, 179.296 365.439, 180.269 365.693 M 191 375.500 C 189.980 376.729, 190.049 377, 191.378 377 C 192.270 377, 193 376.325, 193 375.500 C 193 374.675, 192.830 374, 192.622 374 C 192.415 374, 191.685 374.675, 191 375.500" stroke="none" fill="black" fill-rule="evenodd"/>
</svg>